<svg xmlns="http://www.w3.org/2000/svg" id="Laag_1" data-name="Laag 1" viewBox="0 0 283.46 70.87"><defs><style>.cls-1{fill:#231f20;fill-rule:evenodd;}</style></defs><title>Tekengebied 1</title><path class="cls-1" d="M251.88,26.86c.2-1.31.33-2.63.63-3.91a10.57,10.57,0,0,1,1.17-3.42A3.36,3.36,0,0,1,256,18.36c.44,0,1.23.93,1.35,1.54a7.59,7.59,0,0,1,0,3.45,24.51,24.51,0,0,1-2,5c-2.27,4.36-4.54,8.73-7.06,12.95a34.84,34.84,0,0,1-5.23,7c-4.8,4.77-10.82,4.66-15.87.15a19.65,19.65,0,0,1-5.42-8,49.87,49.87,0,0,1-2.85-15c-.28-5.9,4.33-14,12.29-14.95,1.74-.21,3.4-1.11,5.14-1.5a16.53,16.53,0,0,1,4.2-.44,17.47,17.47,0,0,1,3.42.8,6.91,6.91,0,0,1,4.28,3.7,23.2,23.2,0,0,1,2.85,9.8c.11,1.32.26,2.63.39,4Zm-3.22,1c-.31-2.26-.65-5-1-7.71-.68-4.61-4-6.86-7.83-8.56-.29-.12-.72.07-1.09.12.1.41.06.92.3,1.21a8.59,8.59,0,0,0,1.32.92c.33.28.9.71.84.94-.27,1.15-.45,2.55-1.22,3.27-.51.49-2,0-3-.11-.35-.06-.64-.47-1-.73-1.16-1-1.78-.88-2.44.52a13.53,13.53,0,0,0-.63,1.64c-1,3.05-.71,6.15-.32,9.25.71,5.43,3.28,8.18,10.08,8.64a5,5,0,0,0,5.41-4.33C248.41,31.42,248.45,29.88,248.66,27.85Zm-3.5,13.34c-1.49,0-2.77,0-4,0-6.15-.09-9.71-3-11.51-7.63a18.76,18.76,0,0,1-.87-10.66,23,23,0,0,0,.43-4.3,8.63,8.63,0,0,0-.7-2.36c-1,.62-1.88.89-2.29,1.49-1.9,2.74-3.34,5.79-3.22,9.17a39.14,39.14,0,0,0,4.35,16.75c2.15,4.16,5.26,5,10.12,3.56C240.58,46.26,242.89,43.85,245.16,41.19Z"/><path class="cls-1" d="M207.7,27.5a26.42,26.42,0,0,0,2.61,1.06c5.25,1.48,7.77,7.55,4.86,11.85a12.69,12.69,0,0,1-5.71,4.84,56.31,56.31,0,0,1-6.92,2.34c-3.62.92-7.32,1.62-11,2.38a17.29,17.29,0,0,1-1.88.25c-3.79.35-4.14-.86-5.33-4.21-.52-1.46.94-3,2.52-2.94,1.92,0,2,0,2.09-1.85.2-3.7.32-7.4.42-11.1a9,9,0,0,0-.24-2,6,6,0,0,0-.41-1.07,6.09,6.09,0,0,0-.93.44c-1,.67-1.83.59-2.4-.36a1.57,1.57,0,0,1-.13-1.23c1.49-3.38,3-6.74,4.59-10.11A3.12,3.12,0,0,1,193.17,14c1.08,0,1.73.54,1.63,1.68-.08.95-.28,1.88-.37,2.82-.23,2.56-.51,5.12-.61,7.68-.07,1.72.7,2.38,2.44,2.26a14.87,14.87,0,0,0,10.13-4.6c2.45-2.58,2.54-5.82,1.45-9a5.16,5.16,0,0,0-2.34-2.3,8.52,8.52,0,0,0-6.29-1c-4.24,1.08-8.42,2.38-12.63,3.58a1.57,1.57,0,0,0-1.21,1.39c-.5,2.32-1.59,2.88-3.85,2.18a1.59,1.59,0,0,1-.63-.24c-.75-.58-2.16-1.36-2.06-1.78a4,4,0,0,1,1.85-2.56c6.77-2.79,13.56-5.71,21.07-5.41a22.65,22.65,0,0,1,7.1,1.47,8.65,8.65,0,0,1,5.2,6,6,6,0,0,1-.67,4.83,17.48,17.48,0,0,1-5.61,6C207.75,27.14,207.72,27.32,207.7,27.5ZM197.05,45.62a25.94,25.94,0,0,0,12.13-3.83,5.2,5.2,0,0,0,2.57-5,4.67,4.67,0,0,0-3.53-4.33c-4.37-1.5-8.8-2.07-13.25-.39a2.82,2.82,0,0,0-1.63,1.44c-.78,2.73-1.55,5.48-1.12,8.38S193.63,45.67,197.05,45.62Z"/><path class="cls-1" d="M65.47,45.68a3.12,3.12,0,0,0,.62.5c5.25,2.18,10.62,3.58,16.35,2.34.27-.06.53-.13.79-.21,3.89-1.19,5.24-3.65,3.56-7.34a15.86,15.86,0,0,0-3.92-5.42,118.51,118.51,0,0,0-9.65-6.94C70.85,27,68.35,25.49,66,23.78A10.46,10.46,0,0,1,61.9,17.6c-1-4.1.76-7.32,4.78-8.6a23.16,23.16,0,0,1,12-.58C84,9.56,89.14,11,93.12,14.87a19.14,19.14,0,0,1,3.38,4.34,2.85,2.85,0,0,1-2.87,4.35,8.16,8.16,0,0,1-3.56-1.41c-1.37-.88-1.34-1.8-.43-3.2a1.57,1.57,0,0,0,.15-1.31A4,4,0,0,0,88.46,16a27.13,27.13,0,0,0-14.67-4.1,7.12,7.12,0,0,0-.94.1c-5,.87-6.68,4.79-3.61,8.84a17.25,17.25,0,0,0,4.38,4c3.29,2.14,6.74,4,10.14,6a19.53,19.53,0,0,1,8.12,8.66,12.75,12.75,0,0,1,1,5.22,6.07,6.07,0,0,1-3,5.16,20.22,20.22,0,0,1-11.32,3.21,37.46,37.46,0,0,1-17.29-4.43A10.85,10.85,0,0,1,58,46.08a7.54,7.54,0,0,1-1.59-3.48,3.32,3.32,0,0,1,3.61-4,12.22,12.22,0,0,1,4.42,1c2.26,1,2.72,2.85,1.6,5.07C65.88,45,65.7,45.28,65.47,45.68Z"/><path class="cls-1" d="M22.65,52.41c-4.87-.34-10.47-1-15.37-4.25a14.77,14.77,0,0,1-3.29-3,4.7,4.7,0,0,1,.14-5.66c1.3-1.3,4.3-1.41,5.93-.21a3.59,3.59,0,0,1,1.15,4.26c-.26.82-.24,1.47.54,1.85,4.68,2.3,9.51,3.63,14.75,2.27a5.25,5.25,0,0,0,1.11-.5C32.16,44.79,33,41.5,30,37.33a26.94,26.94,0,0,0-8.15-7.25c-2.47-1.49-5-2.85-7.5-4.34A35,35,0,0,1,10.46,23a7.9,7.9,0,0,1-2.93-8.58,8.26,8.26,0,0,1,6.75-6.47,13.15,13.15,0,0,1,6,.15,132.91,132.91,0,0,1,12.64,4.8,14.68,14.68,0,0,1,6.15,5c1.26,1.76,1.2,3.19-.14,4.65a4.2,4.2,0,0,1-5.06,1,4.89,4.89,0,0,1-2.53-3.65,4.55,4.55,0,0,1-.1-1.75c.55-2.19-.67-3-2.49-3.6-2.79-.87-5.53-1.93-8.35-2.72A7.4,7.4,0,0,0,14.06,13a4.57,4.57,0,0,0-1.48,6.51c1.47,2.58,3.88,4.1,6.37,5.51,3.92,2.24,7.91,4.36,11.72,6.77a16.23,16.23,0,0,1,6.21,7.69c1.87,4.45.35,8.63-3.88,10.92A19.64,19.64,0,0,1,22.65,52.41Z"/><path class="cls-1" d="M114.69,8c7.83.32,14.08,3.86,19.24,9.51a7.1,7.1,0,0,1,1.55,3.23c.45,2.15-1,3.61-3.21,3.34a6.71,6.71,0,0,1-2.06-.61,1.86,1.86,0,0,1-1.11-2.57c.7-1.49,0-2.41-1-3.28A25.59,25.59,0,0,0,119.6,13a25.29,25.29,0,0,0-5.13-1.19A4.71,4.71,0,0,0,109.66,14a4.66,4.66,0,0,0,.12,5.34c2,3.34,5.08,5.6,8,8,3.26,2.64,6.66,5.12,9.78,7.93a16.27,16.27,0,0,1,3.54,4.88,7.47,7.47,0,0,1-2.48,9.51,15.55,15.55,0,0,1-10.34,3.05,33.84,33.84,0,0,1-16.39-5,15.76,15.76,0,0,1-4.27-4.23c-1.62-2.31-1-5.4.86-6.54s4.67-.18,6.24,2a6.94,6.94,0,0,1,1.08,5.3,1.66,1.66,0,0,0,.52,1.4c4.43,2.46,9.1,3.81,14.16,2.38s6.58-5.82,3.76-10.18c-2.18-3.36-5.33-5.75-8.41-8.2-2.36-1.88-4.8-3.67-7.15-5.58a10.42,10.42,0,0,1-4.18-6.44c-.79-5,2.27-8.75,7.73-9.4C113.06,8.1,113.88,8.09,114.69,8Z"/><path class="cls-1" d="M138.11,14.8c2.9-2.14,5.46-4.12,8.12-6A14.07,14.07,0,0,1,150,6.93c1.55-.48,2.53.28,2.43,1.94a39.5,39.5,0,0,1-1,6.93c-1.23,5.09-2.85,10.09-3.94,15.2-.47,2.23-.12,4.66.05,7a2.25,2.25,0,0,0,1.34,1.56c.35.12,1.29-.61,1.51-1.15,1.45-3.54,2.93-7.09,4.13-10.73,1.47-4.45,2.67-9,4-13.5.72-2.45,2.23-3.47,4.48-3.06,1.74.31,2.56,1.44,2,3.11-.82,2.29-1.76,4.55-2.8,6.75-2.62,5.52-4,11.43-5.31,17.32C155.71,43.6,155,49,154.22,54.43c-.32,2.15,0,4.18,2.17,5.4a1.19,1.19,0,0,1,.44.63c.67,2-.82,5.71-2.6,6.67-1.42.75-2.44.38-2.49-1.2A102.36,102.36,0,0,1,151.87,55c.33-4.09,1.07-8.14,1.6-12.22a10.16,10.16,0,0,0-.06-1.74l-.46-.11c-.53.86-1.06,1.72-1.61,2.56a43.14,43.14,0,0,1-2.73,4,2.46,2.46,0,0,1-4.46-.83,16.31,16.31,0,0,1-.81-5,77.81,77.81,0,0,1,3.12-19.34c.61-2.26,1.08-4.57,1.49-6.87.09-.54-.36-1.17-.56-1.76-.61.3-1.44.44-1.77.92a14.14,14.14,0,0,0-1.25,2.83c-.4,1-.67,2.19-2,2.27a3,3,0,0,1-2.94-1.82C138.87,16.81,138.48,15.66,138.11,14.8Z"/><path class="cls-1" d="M270.17,38.56c-.33.3-.69.58-1,.92-.81.85-1.51,1.81-2.38,2.57-1.92,1.69-4.64,1.34-5.7-1a11.82,11.82,0,0,1-1.17-5.46c.25-4.08.91-8.15,1.49-12.21s1.2-7.85,1.79-11.78a5.12,5.12,0,0,0,.06-1.35c-.13-1-.93-1.35-1.74-.66a3.2,3.2,0,0,0-.8,1.06,18.67,18.67,0,0,0-.8,2.16c-.33,1-.41,2.15-1.71,2.35a3.5,3.5,0,0,1-3.38-1.29,8.77,8.77,0,0,1-1.27-2.23,1.12,1.12,0,0,1,.31-1c2.67-2.37,5.28-4.82,8.12-7a9,9,0,0,1,4.15-1.39c1.91-.26,3,.87,2.66,2.78-.45,2.57-1.2,5.09-1.78,7.64-1.08,4.75-2.27,9.48-3.14,14.27a29.13,29.13,0,0,0,0,6.05,2.65,2.65,0,0,0,.42,1.41A15.76,15.76,0,0,0,266,36.26a6.52,6.52,0,0,0,1.32-1.74c1.29-4.18,2.4-8.42,3.73-12.6,1.26-4,2.55-7.91,4.16-11.73.66-1.58,2.14-2.84,3.32-4.18a1.29,1.29,0,0,1,1.2-.25,1.32,1.32,0,0,1,.52,1.12,16,16,0,0,1-.62,3.31,133,133,0,0,0-6.14,25.64c-.73,5.27-1.32,10.57-1.87,15.86-.2,1.94.06,2.18,1.91,2.81.75.26,1.2.69,1,1.5a6.5,6.5,0,0,1-3.47,4.9c-1.33.62-2.2.34-2.41-1.08a18.41,18.41,0,0,1-.16-5c.55-4.61,1.3-9.21,1.95-13.82.11-.76.09-1.54.13-2.31Z"/><path class="cls-1" d="M47.93,30.1a17.46,17.46,0,0,1-2.52,1.12A1.3,1.3,0,0,1,43.65,30a5.57,5.57,0,0,1,.68-4.13c1.42-2.34,2.52-4.89,3.88-7.28A19.29,19.29,0,0,0,51,10a3.15,3.15,0,0,1,.46-1.54,1.73,1.73,0,0,1,1.2-.79,1.74,1.74,0,0,1,1.15.92,3.55,3.55,0,0,1,.21,1.72c-.28,4.33-.33,8.69-1,13a68.54,68.54,0,0,0-.3,20.62,21,21,0,0,1,.15,4.19,3.72,3.72,0,0,1-.68,2.13,2.83,2.83,0,0,1-1.94.94c-.36,0-1-.91-1.05-1.47-.43-3.21-.83-6.43-1-9.67-.19-2.78-.12-5.59-.17-8.39C48,31.09,48,30.57,47.93,30.1Z"/><path class="cls-1" d="M171.36,33.59l6,.78c1,.12,1.17.78.6,1.39a5.87,5.87,0,0,1-2.29,1.66,18.69,18.69,0,0,1-3.21.3,4.79,4.79,0,0,0-1.89.57,3.08,3.08,0,0,1-3.55-.17,1.84,1.84,0,0,1,.27-3.4A36.44,36.44,0,0,1,171.36,33.59Z"/><path class="cls-1" d="M44.06,13a2.4,2.4,0,0,1,.09-1,4.33,4.33,0,0,0,0-3.69c-.23-.74.51-2,1.16-2.76s1.8-.34,2.6.22a4,4,0,0,1,1,5.86,24.06,24.06,0,0,1-2.62,3.09c-.36.37-1.12.77-1.47.62s-.54-.93-.74-1.46A3.81,3.81,0,0,1,44.06,13Z"/></svg>